# xmcd
#
# Track frame offsets:
# 150
# 22481
# 40420
# 62379
# 85177
# 98046
# 113955
# 131083
# 146064
# 164475
# 176660
# 194184
# 213496
# 224180
# 242791
# 256308
# 278726
# 294251
# 306994
# 320017
#
# Disc length: 4450 seconds
#
#
# Revision: 9
# Processed by: cddbd v1.5.2PL0 Copyright (c) Steve Scherf et al.
# Submitted via: FreeRIP 2.945 
#
DISCID=48116014
DTITLE=Zé Ramalho - 20 Super Sucessos - Zé Ramalho
DYEAR=1999
DGENRE=pp
TTITLE0=Avohai
TTITLE1=Décimas de um Cantador
TTITLE2=Admirável Gado Novo
TTITLE3=Orquídea Negra
TTITLE4=Filhos de Ícaro
TTITLE5=
TTITLE6=Beira Mar
TTITLE7=Pelo Vinho e Pelo Pão
TTITLE8=Um Índio
TTITLE9=Mulher Nova, Bonita e Carinhosa Faz o Homem Gemer Sem Sentir Dor
TTITLE10=Vila do Sossêgo
TTITLE11=A Terceira Lâmina
TTITLE12=Bicho de 7 Cabeças
TTITLE13=A Peleja do Diabo Com o Dono do Céu
TTITLE14=Kamikaze
TTITLE15=Canção Agalopada
TTITLE16=Acredite Quem Quiser
TTITLE17=Filhos de Câncer
TTITLE18=Hino de Duran - Deixa Isso Pra Lá
TTITLE19=Paisagem da Flor Desesperada
EXTD=YEAR: 1999
EXTT0=
EXTT1=
EXTT2=
EXTT3=
EXTT4=
EXTT5=
EXTT6=
EXTT7=
EXTT8=
EXTT9=
EXTT10=
EXTT11=
EXTT12=
EXTT13=
EXTT14=
EXTT15=
EXTT16=
EXTT17=
EXTT18=
EXTT19=
PLAYORDER=
